<?xml version="1.0" encoding="utf-8"?><svg viewBox="0 0 58 58" xmlns="http://www.w3.org/2000/svg" xmlns:xlink="http://www.w3.org/1999/xlink"><style>:root>svg{display:none}:root>svg:target{display:block}</style><svg fill="none" viewBox="0 0 25 24" id="account" xmlns="http://www.w3.org/2000/svg"><path d="M3.5 5v14a2 2 0 002 2h14c1.1 0 2-.9 2-2V5c0-1.1-.9-2-2-2h-14a2 2 0 00-2 2zm12 4c0 1.66-1.34 3-3 3s-3-1.34-3-3 1.34-3 3-3 3 1.34 3 3zm-9 8c0-2 4-3.1 6-3.1s6 1.1 6 3.1v1h-12v-1z" fill="#E0E0E0"/></svg><svg fill="none" viewBox="0 0 58 58" id="currency" xmlns="http://www.w3.org/2000/svg"><g filter="url(#ba)"><rect x="10" y="7" width="38" height="38" rx="6" fill="#fff"/><path fill-rule="evenodd" clip-rule="evenodd" d="M16 7a6 6 0 00-6 6v26a6 6 0 006 6h26a6 6 0 006-6V13a6 6 0 00-6-6H16zm9.752 15.599c0 1.182.909 1.94 3.733 2.675 2.825.734 5.848 1.941 5.848 5.475 0 2.55-1.928 3.957-4.355 4.417v2.675h-3.733v-2.7c-2.389-.51-4.43-2.04-4.578-4.765h2.737c.137 1.468 1.145 2.613 3.708 2.613 2.75 0 3.36-1.37 3.36-2.228 0-1.157-.623-2.252-3.733-2.998-3.472-.834-5.849-2.265-5.849-5.14 0-2.4 1.942-3.968 4.355-4.491v-2.688h3.733v2.725c2.6.635 3.907 2.6 3.994 4.741h-2.75c-.074-1.555-.895-2.613-3.11-2.613-2.103 0-3.36.946-3.36 2.302z" fill="#4A56E2"/></g><defs><filter id="ba" x="-3" y="-3" width="64" height="64" filterUnits="userSpaceOnUse" color-interpolation-filters="sRGB"><feFlood flood-opacity="0" result="BackgroundImageFix"/><feColorMatrix in="SourceAlpha" values="0 0 0 0 0 0 0 0 0 0 0 0 0 0 0 0 0 0 127 0" result="hardAlpha"/><feOffset dy="3"/><feGaussianBlur stdDeviation="5"/><feColorMatrix values="0 0 0 0 0.290196 0 0 0 0 0.337255 0 0 0 0 0.886275 0 0 0 0.5 0"/><feBlend in2="BackgroundImageFix" result="effect1_dropShadow_7_72"/><feBlend in="SourceGraphic" in2="effect1_dropShadow_7_72" result="shape"/></filter></defs></svg></svg>